<svg id="visual" viewBox="0 0 960 300" width="960" height="300" xmlns="http://www.w3.org/2000/svg" xmlns:xlink="http://www.w3.org/1999/xlink" version="1.1"><rect x="0" y="0" width="960" height="300" fill="#001220"></rect><path d="M0 128L17.8 128.3C35.7 128.7 71.3 129.3 106.8 125.3C142.3 121.3 177.7 112.7 213.2 107.5C248.7 102.3 284.3 100.7 320 107.7C355.7 114.7 391.3 130.3 426.8 139.3C462.3 148.3 497.7 150.7 533.2 143.2C568.7 135.7 604.3 118.3 640 116.7C675.7 115 711.3 129 746.8 127C782.3 125 817.7 107 853.2 106.3C888.7 105.7 924.3 122.3 942.2 130.7L960 139L960 301L942.2 301C924.3 301 888.7 301 853.2 301C817.7 301 782.3 301 746.8 301C711.3 301 675.7 301 640 301C604.3 301 568.7 301 533.2 301C497.7 301 462.3 301 426.8 301C391.3 301 355.7 301 320 301C284.3 301 248.7 301 213.2 301C177.7 301 142.3 301 106.8 301C71.3 301 35.7 301 17.8 301L0 301Z" fill="#011e35"></path><path d="M0 157L17.8 155.2C35.7 153.3 71.3 149.7 106.8 147.3C142.3 145 177.7 144 213.2 153.5C248.7 163 284.3 183 320 193.7C355.7 204.3 391.3 205.7 426.8 195.7C462.3 185.7 497.7 164.3 533.2 159.2C568.7 154 604.3 165 640 168.8C675.7 172.7 711.3 169.3 746.8 169.7C782.3 170 817.7 174 853.2 168.8C888.7 163.7 924.3 149.3 942.2 142.2L960 135L960 301L942.2 301C924.3 301 888.7 301 853.2 301C817.7 301 782.3 301 746.8 301C711.3 301 675.7 301 640 301C604.3 301 568.7 301 533.2 301C497.7 301 462.3 301 426.8 301C391.3 301 355.7 301 320 301C284.3 301 248.7 301 213.2 301C177.7 301 142.3 301 106.8 301C71.3 301 35.7 301 17.8 301L0 301Z" fill="#003b6d"></path><path d="M0 226L17.8 224.7C35.7 223.3 71.3 220.7 106.8 216.5C142.3 212.3 177.7 206.7 213.2 204.3C248.7 202 284.3 203 320 211.2C355.7 219.3 391.3 234.7 426.8 237.7C462.3 240.7 497.7 231.3 533.2 222.3C568.7 213.3 604.3 204.7 640 207C675.7 209.3 711.3 222.7 746.8 226.8C782.3 231 817.7 226 853.2 222C888.7 218 924.3 215 942.2 213.5L960 212L960 301L942.2 301C924.3 301 888.7 301 853.2 301C817.7 301 782.3 301 746.8 301C711.3 301 675.7 301 640 301C604.3 301 568.7 301 533.2 301C497.7 301 462.3 301 426.8 301C391.3 301 355.7 301 320 301C284.3 301 248.7 301 213.2 301C177.7 301 142.3 301 106.8 301C71.3 301 35.7 301 17.8 301L0 301Z" fill="#0e59a9"></path></svg>