<svg id="visual" viewBox="0 0 960 300" width="960" height="300" xmlns="http://www.w3.org/2000/svg" xmlns:xlink="http://www.w3.org/1999/xlink" version="1.1"><rect x="0" y="0" width="960" height="300" fill="#001220"></rect><path d="M0 103L17.8 104.8C35.7 106.7 71.3 110.3 106.8 106.8C142.3 103.3 177.7 92.7 213.2 95.3C248.7 98 284.3 114 320 119.2C355.7 124.3 391.3 118.7 426.8 121.2C462.3 123.7 497.7 134.3 533.2 132.7C568.7 131 604.3 117 640 114.8C675.7 112.7 711.3 122.3 746.8 126.5C782.3 130.7 817.7 129.3 853.2 125C888.7 120.7 924.3 113.3 942.2 109.7L960 106L960 301L942.2 301C924.3 301 888.7 301 853.2 301C817.7 301 782.3 301 746.8 301C711.3 301 675.7 301 640 301C604.3 301 568.7 301 533.2 301C497.7 301 462.3 301 426.8 301C391.3 301 355.7 301 320 301C284.3 301 248.7 301 213.2 301C177.7 301 142.3 301 106.8 301C71.3 301 35.7 301 17.8 301L0 301Z" fill="#011e35"></path><path d="M0 108L17.8 116.8C35.7 125.7 71.3 143.3 106.8 145.8C142.3 148.3 177.7 135.7 213.2 138.8C248.7 142 284.3 161 320 163.3C355.7 165.7 391.3 151.3 426.8 143.8C462.3 136.3 497.7 135.7 533.2 137.7C568.7 139.7 604.3 144.3 640 144.3C675.7 144.3 711.3 139.7 746.8 142.5C782.3 145.3 817.7 155.7 853.2 162C888.7 168.3 924.3 170.7 942.2 171.8L960 173L960 301L942.2 301C924.3 301 888.7 301 853.2 301C817.7 301 782.3 301 746.8 301C711.3 301 675.7 301 640 301C604.3 301 568.7 301 533.2 301C497.7 301 462.3 301 426.8 301C391.3 301 355.7 301 320 301C284.3 301 248.7 301 213.2 301C177.7 301 142.3 301 106.8 301C71.3 301 35.7 301 17.8 301L0 301Z" fill="#002c50"></path><path d="M0 208L17.8 203C35.7 198 71.3 188 106.8 187.2C142.3 186.3 177.7 194.7 213.2 190C248.7 185.3 284.3 167.7 320 164.2C355.7 160.7 391.3 171.3 426.8 175.5C462.3 179.7 497.7 177.3 533.2 173.2C568.7 169 604.3 163 640 166.5C675.7 170 711.3 183 746.8 181.5C782.3 180 817.7 164 853.2 161.3C888.7 158.7 924.3 169.3 942.2 174.7L960 180L960 301L942.2 301C924.3 301 888.7 301 853.2 301C817.7 301 782.3 301 746.8 301C711.3 301 675.7 301 640 301C604.3 301 568.7 301 533.2 301C497.7 301 462.3 301 426.8 301C391.3 301 355.7 301 320 301C284.3 301 248.7 301 213.2 301C177.7 301 142.3 301 106.8 301C71.3 301 35.7 301 17.8 301L0 301Z" fill="#003b6d"></path><path d="M0 231L17.8 224.3C35.7 217.7 71.3 204.3 106.8 202.7C142.3 201 177.7 211 213.2 214.5C248.7 218 284.3 215 320 215.5C355.7 216 391.3 220 426.8 221.8C462.3 223.7 497.7 223.3 533.2 224.8C568.7 226.3 604.3 229.7 640 229.8C675.7 230 711.3 227 746.8 226.5C782.3 226 817.7 228 853.2 224.3C888.7 220.7 924.3 211.3 942.2 206.7L960 202L960 301L942.2 301C924.3 301 888.7 301 853.2 301C817.7 301 782.3 301 746.8 301C711.3 301 675.7 301 640 301C604.3 301 568.7 301 533.2 301C497.7 301 462.3 301 426.8 301C391.3 301 355.7 301 320 301C284.3 301 248.7 301 213.2 301C177.7 301 142.3 301 106.8 301C71.3 301 35.7 301 17.8 301L0 301Z" fill="#014a8b"></path><path d="M0 262L17.8 256.8C35.7 251.7 71.3 241.3 106.8 235.8C142.3 230.3 177.7 229.7 213.2 231.2C248.7 232.7 284.3 236.3 320 242.8C355.7 249.3 391.3 258.7 426.8 258.7C462.3 258.7 497.7 249.3 533.2 246.5C568.7 243.7 604.3 247.3 640 249.8C675.7 252.3 711.3 253.7 746.8 254.8C782.3 256 817.7 257 853.2 258.2C888.7 259.3 924.3 260.7 942.2 261.3L960 262L960 301L942.2 301C924.3 301 888.7 301 853.2 301C817.7 301 782.3 301 746.8 301C711.3 301 675.7 301 640 301C604.3 301 568.7 301 533.2 301C497.7 301 462.3 301 426.8 301C391.3 301 355.7 301 320 301C284.3 301 248.7 301 213.2 301C177.7 301 142.3 301 106.8 301C71.3 301 35.7 301 17.8 301L0 301Z" fill="#0e59a9"></path></svg>