<svg id="visual" viewBox="0 0 960 300" width="960" height="300" xmlns="http://www.w3.org/2000/svg" xmlns:xlink="http://www.w3.org/1999/xlink" version="1.1"><rect x="0" y="0" width="960" height="300" fill="#001220"></rect><path d="M0 214L17.8 214.2C35.7 214.3 71.3 214.7 106.8 211C142.3 207.3 177.7 199.7 213.2 199.2C248.7 198.7 284.3 205.3 320 209C355.7 212.7 391.3 213.3 426.8 209.2C462.3 205 497.7 196 533.2 191.2C568.7 186.3 604.3 185.7 640 180.2C675.7 174.7 711.3 164.3 746.8 170.2C782.3 176 817.7 198 853.2 205.5C888.7 213 924.3 206 942.2 202.5L960 199L960 0L942.2 0C924.3 0 888.7 0 853.2 0C817.7 0 782.3 0 746.8 0C711.3 0 675.7 0 640 0C604.3 0 568.7 0 533.2 0C497.7 0 462.3 0 426.8 0C391.3 0 355.7 0 320 0C284.3 0 248.7 0 213.2 0C177.7 0 142.3 0 106.8 0C71.3 0 35.7 0 17.8 0L0 0Z" fill="#011e35"></path><path d="M0 174L17.8 165C35.7 156 71.3 138 106.8 136.7C142.3 135.3 177.7 150.7 213.2 158.7C248.7 166.7 284.3 167.3 320 160.2C355.7 153 391.3 138 426.8 140.5C462.3 143 497.7 163 533.2 171.7C568.7 180.3 604.3 177.7 640 170.5C675.7 163.3 711.3 151.7 746.8 145.7C782.3 139.7 817.7 139.3 853.2 139.3C888.7 139.3 924.3 139.7 942.2 139.8L960 140L960 0L942.2 0C924.3 0 888.7 0 853.2 0C817.7 0 782.3 0 746.8 0C711.3 0 675.7 0 640 0C604.3 0 568.7 0 533.2 0C497.7 0 462.3 0 426.8 0C391.3 0 355.7 0 320 0C284.3 0 248.7 0 213.2 0C177.7 0 142.3 0 106.8 0C71.3 0 35.7 0 17.8 0L0 0Z" fill="#002c50"></path><path d="M0 104L17.8 103C35.7 102 71.3 100 106.8 97.8C142.3 95.7 177.7 93.3 213.2 94.8C248.7 96.3 284.3 101.7 320 102.7C355.7 103.7 391.3 100.3 426.8 106.8C462.3 113.3 497.7 129.7 533.2 130.3C568.7 131 604.3 116 640 110.2C675.7 104.3 711.3 107.7 746.8 114.2C782.3 120.7 817.7 130.3 853.2 135.7C888.7 141 924.3 142 942.2 142.5L960 143L960 0L942.2 0C924.3 0 888.7 0 853.2 0C817.7 0 782.3 0 746.8 0C711.3 0 675.7 0 640 0C604.3 0 568.7 0 533.2 0C497.7 0 462.3 0 426.8 0C391.3 0 355.7 0 320 0C284.3 0 248.7 0 213.2 0C177.7 0 142.3 0 106.8 0C71.3 0 35.7 0 17.8 0L0 0Z" fill="#003b6d"></path><path d="M0 100L17.8 93.5C35.7 87 71.3 74 106.8 72.7C142.3 71.3 177.7 81.7 213.2 85.7C248.7 89.7 284.3 87.3 320 90C355.7 92.7 391.3 100.3 426.8 97.7C462.3 95 497.7 82 533.2 76.3C568.7 70.7 604.3 72.3 640 70.7C675.7 69 711.3 64 746.8 68.3C782.3 72.7 817.7 86.3 853.2 86.8C888.7 87.3 924.3 74.7 942.2 68.3L960 62L960 0L942.2 0C924.3 0 888.7 0 853.2 0C817.7 0 782.3 0 746.8 0C711.3 0 675.7 0 640 0C604.3 0 568.7 0 533.2 0C497.7 0 462.3 0 426.8 0C391.3 0 355.7 0 320 0C284.3 0 248.7 0 213.2 0C177.7 0 142.3 0 106.8 0C71.3 0 35.7 0 17.8 0L0 0Z" fill="#014a8b"></path><path d="M0 53L17.8 55C35.7 57 71.3 61 106.8 62.5C142.3 64 177.7 63 213.2 57C248.7 51 284.3 40 320 34.8C355.7 29.7 391.3 30.3 426.8 31.3C462.3 32.3 497.7 33.7 533.2 34.7C568.7 35.7 604.3 36.3 640 41.2C675.7 46 711.3 55 746.8 54.8C782.3 54.7 817.7 45.3 853.2 42.2C888.7 39 924.3 42 942.2 43.5L960 45L960 0L942.2 0C924.3 0 888.7 0 853.2 0C817.7 0 782.3 0 746.8 0C711.3 0 675.7 0 640 0C604.3 0 568.7 0 533.2 0C497.7 0 462.3 0 426.8 0C391.3 0 355.7 0 320 0C284.3 0 248.7 0 213.2 0C177.7 0 142.3 0 106.8 0C71.3 0 35.7 0 17.8 0L0 0Z" fill="#0e59a9"></path></svg>